<?xml version="1.0" encoding="UTF-8"?>
<svg width="1200pt" height="1200pt" version="1.1" viewBox="0 0 1200 1200" xmlns="http://www.w3.org/2000/svg">
 <path d="m200.58 35.297c-9.75 0.046875-17.578 7.9688-17.578 17.719v1094c0 9.75 7.8281 17.672 17.578 17.719h798.71c4.6875 0 9.1875-1.8281 12.516-5.1562s5.2031-7.875 5.2031-12.562v-1094c0-4.6875-1.875-9.2344-5.2031-12.562s-7.8281-5.1562-12.516-5.1562zm17.719 35.344h51.891v1058.8h-51.891zm87.047 0h230.95v99.516-0.046875c0.046875 9.75 7.9688 17.625 17.719 17.578h91.969-0.046875c9.75 0 17.578-7.875 17.625-17.578v-99.469h230.95v1058.8h-230.95v-99.516c-0.046875-9.7031-7.875-17.578-17.625-17.578h-91.969 0.046875c-9.75-0.046875-17.672 7.8281-17.719 17.578v99.516h-230.95zm266.26 0h56.672v81.797h-56.672zm358.22 0h51.844v1058.8h-51.844zm-375.79 206.86c-9.75-0.046875-17.672 7.8281-17.719 17.578v242.39c-0.046875 4.6875 1.8281 9.2344 5.1562 12.562 3.3281 3.2812 7.8281 5.1562 12.562 5.1562h91.969-0.046875c4.6875 0 9.1875-1.875 12.516-5.2031 3.2812-3.3281 5.1562-7.8281 5.1094-12.516v-242.39c-0.046875-9.7031-7.875-17.578-17.625-17.578zm17.578 35.297h56.672v207.1h-56.672zm-17.578 332.06v-0.046875c-4.7344 0-9.2344 1.875-12.562 5.1562-3.3281 3.3281-5.2031 7.875-5.1562 12.562v242.44c0.046875 9.75 7.9688 17.625 17.719 17.578h91.969-0.046875c9.75 0 17.578-7.875 17.625-17.578v-242.44c0.046875-4.6875-1.8281-9.1875-5.1094-12.516-3.3281-3.3281-7.8281-5.2031-12.516-5.2031zm17.578 35.297h56.672v207.1h-56.672zm0 367.45h56.672v81.844h-56.672z" fill="#f9dc04"/>
</svg>
